<svg version="1.1" id="Layer_1" xmlns="http://www.w3.org/2000/svg" xmlns:xlink="http://www.w3.org/1999/xlink" x="0px" y="0px"
	 width="100%" viewBox="0 0 58 51" enable-background="new 0 0 58 51" xml:space="preserve">
<path fill="#FDFDFD" opacity="1.000000" stroke="none" 
	d="
M35.000072,52.000000 
	C24.166721,52.000000 13.832267,51.920097 3.500973,52.065182 
	C1.349045,52.095402 0.919324,51.649029 0.936112,49.499557 
	C1.055861,34.167160 1.055840,18.832958 0.936128,3.500562 
	C0.919348,1.351343 1.351508,0.922921 3.500339,0.936583 
	C21.166290,1.048905 38.833576,1.048885 56.499527,0.936602 
	C58.648083,0.922945 59.080685,1.350934 59.063896,3.500428 
	C58.944145,18.832825 58.944168,34.167027 59.063873,49.499424 
	C59.080654,51.648613 58.655029,52.120434 56.498409,52.065994 
	C49.502872,51.889412 42.500088,52.000000 35.000072,52.000000 
z"/>
<path fill="#404040" opacity="1.000000" stroke="none" 
	d="
M46.903679,32.780937 
	C45.882881,38.730412 40.340408,43.627907 34.157520,43.888992 
	C27.706123,44.161415 21.231440,43.841125 14.773357,44.016510 
	C12.156811,44.087566 11.831734,42.915455 11.833598,40.754211 
	C11.835567,38.471684 12.022934,37.005280 14.971031,37.110573 
	C20.597790,37.311539 26.237476,37.187454 31.871334,37.141647 
	C36.743866,37.102028 41.422153,36.228661 45.819450,33.298843 
	C46.192539,32.857536 46.393085,32.736977 46.903679,32.780937 
z"/>
<path fill="#404040" opacity="1.000000" stroke="none" 
	d="
M13.305574,24.169483 
	C18.894381,14.188163 27.352997,9.385670 38.793777,10.761782 
	C43.502365,11.328137 47.248505,13.476654 47.338074,19.117105 
	C46.805325,19.353468 46.597034,19.427715 46.195808,19.232151 
	C35.004204,15.367763 24.833319,16.821268 15.307270,24.163416 
	C14.545567,24.560001 14.064291,24.583838 13.305574,24.169483 
z"/>
<path fill="#4D4D4D" opacity="1.000000" stroke="none" 
	d="
M46.850460,20.361130 
	C49.938633,20.411268 52.783749,20.197046 55.240856,21.870131 
	C55.857105,22.289743 56.595974,23.094276 56.594791,23.720619 
	C56.593098,24.616022 55.493893,24.987951 54.709774,24.866602 
	C51.810616,24.417933 46.862415,29.137846 46.604683,21.333260 
	C46.563148,20.699726 46.557278,20.494888 46.850460,20.361130 
z"/>
<path fill="#4A4A4A" opacity="1.000000" stroke="none" 
	d="
M39.279350,24.704872 
	C40.640049,27.020693 40.598923,28.853722 38.481121,30.165731 
	C37.220448,30.946739 35.836113,30.733814 34.711487,29.912355 
	C33.366962,28.930277 32.949848,27.434032 33.617783,25.910000 
	C34.754669,23.315950 36.746880,23.294977 39.279350,24.704872 
z"/>
<path fill="#F4F4F4" opacity="1.000000" stroke="none" 
	d="
M13.012720,24.264221 
	C13.479569,24.001848 13.925023,24.089960 14.696063,24.277966 
	C14.550762,26.223286 13.972073,27.982517 11.788313,28.853033 
	C11.212690,26.860058 13.511715,26.186832 13.012720,24.264221 
z"/>
<path fill="#F4F4F4" opacity="1.000000" stroke="none" 
	d="
M47.544552,32.897522 
	C47.010132,32.952000 46.806541,32.958538 46.297470,32.971588 
	C46.109921,31.610172 45.867321,29.631617 48.088707,30.370319 
	C49.386936,30.802034 49.157406,32.104816 47.544552,32.897522 
z"/>
<path fill="#F4F4F4" opacity="1.000000" stroke="none" 
	d="
M47.121468,20.143261 
	C47.149509,20.432205 46.979134,20.815662 46.774078,20.860111 
	C46.381195,20.432631 46.193367,19.960697 46.004211,19.225552 
	C46.189396,18.957546 46.375912,18.952753 46.788025,19.113590 
	C47.040218,19.470921 47.066822,19.662617 47.121468,20.143261 
z"/>
</svg>