<svg version="1.1" xmlns="http://www.w3.org/2000/svg"
	xmlns:xlink="http://www.w3.org/1999/xlink" x="0px" y="0px"
	width="100%" viewBox="0 0 512 512" enable-background="new 0 0 512 512" xml:space="preserve">
<path fill="#000000" opacity="1.000000" stroke="none" 
	d="
M513.000000,112.000000 
	C513.000000,116.689255 513.000000,121.378510 512.616394,126.667740 
	C510.656128,135.176910 509.079132,143.086014 507.502991,150.995300 
	C504.001556,168.566193 500.496063,186.136261 497.000732,203.708374 
	C493.882935,219.382477 490.802612,235.064072 487.657959,250.732773 
	C484.133362,268.294281 480.377869,285.811584 477.053436,303.410553 
	C474.111725,318.983459 468.084076,332.557190 456.109650,343.604889 
	C442.898376,355.793732 427.284576,360.864227 409.967804,360.910309 
	C332.470581,361.116486 254.972473,361.036835 177.474762,360.961212 
	C165.529160,360.949554 153.849396,359.049438 143.430328,352.754181 
	C126.863098,342.744171 115.449005,328.807709 112.043060,309.288635 
	C110.369728,299.699066 109.180916,290.025543 107.728233,280.396729 
	C106.179619,270.131958 104.538750,259.881073 103.011238,249.613235 
	C101.505707,239.493149 100.118973,229.355469 98.629921,219.232880 
	C97.118561,208.958527 95.508522,198.698608 94.011932,188.422150 
	C92.840683,180.379669 91.828003,172.314056 90.652252,164.272263 
	C89.150200,153.998764 87.509949,143.745468 86.012856,133.471268 
	C84.560211,123.502083 83.262413,113.510330 81.806618,103.541626 
	C80.259476,92.947395 78.224335,82.408714 77.108757,71.771675 
	C76.020378,61.393867 73.943291,59.000061 63.585072,59.000011 
	C49.418812,58.999947 35.250313,59.130188 21.088245,58.886551 
	C18.363052,58.839672 15.152170,57.982624 13.058025,56.352524 
	C8.720962,52.976521 4.983829,48.829796 1.000000,45.000000 
	C1.000000,39.311958 1.000000,33.623920 1.343545,27.387707 
	C4.346615,23.579424 6.620573,19.873959 9.753965,17.161190 
	C14.739501,12.844907 21.231430,12.052652 27.524212,12.083972 
	C43.103962,12.161513 58.686085,12.528846 74.258835,13.037463 
	C90.859467,13.579651 103.456009,21.532188 113.223152,34.624382 
	C122.314323,46.810501 122.530357,61.484024 124.979248,75.534882 
	C126.105957,81.999580 127.009727,88.503120 128.016281,95.000000 
	C130.544739,95.000000 132.369598,95.000000 134.194458,95.000000 
	C251.149338,95.000000 368.104218,95.020485 485.059082,94.970993 
	C497.954590,94.965530 507.995575,99.250778 513.000000,112.000000 
z"/>
<path fill="#FFFFFF" opacity="1.000000" stroke="none" 
	d="
M1.000000,45.468658 
	C4.983829,48.829796 8.720962,52.976521 13.058025,56.352524 
	C15.152170,57.982624 18.363052,58.839672 21.088245,58.886551 
	C35.250313,59.130188 49.418812,58.999947 63.585072,59.000011 
	C73.943291,59.000061 76.020378,61.393867 77.108757,71.771675 
	C78.224335,82.408714 80.259476,92.947395 81.806618,103.541626 
	C83.262413,113.510330 84.560211,123.502083 86.012856,133.471268 
	C87.509949,143.745468 89.150200,153.998764 90.652252,164.272263 
	C91.828003,172.314056 92.840683,180.379669 94.011932,188.422150 
	C95.508522,198.698608 97.118561,208.958527 98.629921,219.232880 
	C100.118973,229.355469 101.505707,239.493149 103.011238,249.613235 
	C104.538750,259.881073 106.179619,270.131958 107.728233,280.396729 
	C109.180916,290.025543 110.369728,299.699066 112.043060,309.288635 
	C115.449005,328.807709 126.863098,342.744171 143.430328,352.754181 
	C153.849396,359.049438 165.529160,360.949554 177.474762,360.961212 
	C254.972473,361.036835 332.470581,361.116486 409.967804,360.910309 
	C427.284576,360.864227 442.898376,355.793732 456.109650,343.604889 
	C468.084076,332.557190 474.111725,318.983459 477.053436,303.410553 
	C480.377869,285.811584 484.133362,268.294281 487.657959,250.732773 
	C490.802612,235.064072 493.882935,219.382477 497.000732,203.708374 
	C500.496063,186.136261 504.001556,168.566193 507.502991,150.995300 
	C509.079132,143.086014 510.656128,135.176910 512.616394,127.133858 
	C513.000000,255.625443 513.000000,384.250885 513.000000,512.938171 
	C342.429260,512.938171 171.858475,512.938171 1.000000,512.938171 
	C1.000000,357.312561 1.000000,201.624939 1.000000,45.468658 
M367.810028,497.973511 
	C374.920044,499.297913 382.090363,501.970001 389.127014,501.655151 
	C402.196503,501.070282 414.543884,497.576660 425.504120,489.304443 
	C445.134766,474.488251 453.809204,448.367401 446.914062,425.416168 
	C439.218170,399.799591 421.515503,384.456329 395.236694,381.324005 
	C374.709412,378.877258 356.562683,385.951996 343.007843,402.488403 
	C326.808685,422.250732 324.693024,443.973938 334.602173,467.046783 
	C340.949585,481.826263 352.567230,491.347992 367.810028,497.973511 
M140.981415,400.530304 
	C137.289825,406.523315 132.935287,412.215698 130.051529,418.575073 
	C124.847084,430.052185 123.720512,442.032013 126.795692,454.587128 
	C129.984955,467.607971 136.125504,478.424683 146.442749,486.983673 
	C160.946945,499.015991 177.383606,503.524139 195.837769,499.579956 
	C211.084824,496.321228 223.221848,487.962341 232.153976,475.270203 
	C242.513199,460.550232 245.461975,444.261078 241.286240,426.721466 
	C238.241394,413.932037 231.573105,403.470978 221.534927,394.948029 
	C211.575302,386.491852 200.046997,381.803680 187.229355,381.125793 
	C169.179001,380.171173 154.067352,387.268311 140.981415,400.530304 
z"/>
<path fill="#FFFFFF" opacity="1.000000" stroke="none" 
	d="
M513.000000,111.531342 
	C507.995575,99.250778 497.954590,94.965530 485.059082,94.970993 
	C368.104218,95.020485 251.149338,95.000000 134.194458,95.000000 
	C132.369598,95.000000 130.544739,95.000000 128.016281,95.000000 
	C127.009727,88.503120 126.105957,81.999580 124.979248,75.534882 
	C122.530357,61.484024 122.314323,46.810501 113.223152,34.624382 
	C103.456009,21.532188 90.859467,13.579651 74.258835,13.037463 
	C58.686085,12.528846 43.103962,12.161513 27.524212,12.083972 
	C21.231430,12.052652 14.739501,12.844907 9.753965,17.161190 
	C6.620573,19.873959 4.346615,23.579424 1.343545,26.919767 
	C1.000000,18.339176 1.000000,9.678350 1.000000,1.013144 
	C171.545776,1.008763 342.091553,1.008763 513.000000,1.008763 
	C513.000000,37.686764 513.000000,74.374725 513.000000,111.531342 
z"/>
<path fill="#000000" opacity="1.000000" stroke="none" 
	d="
M367.450073,497.793274 
	C352.567230,491.347992 340.949585,481.826263 334.602173,467.046783 
	C324.693024,443.973938 326.808685,422.250732 343.007843,402.488403 
	C356.562683,385.951996 374.709412,378.877258 395.236694,381.324005 
	C421.515503,384.456329 439.218170,399.799591 446.914062,425.416168 
	C453.809204,448.367401 445.134766,474.488251 425.504120,489.304443 
	C414.543884,497.576660 402.196503,501.070282 389.127014,501.655151 
	C382.090363,501.970001 374.920044,499.297913 367.450073,497.793274 
z"/>
<path fill="#000000" opacity="1.000000" stroke="none" 
	d="
M141.229340,400.272461 
	C154.067352,387.268311 169.179001,380.171173 187.229355,381.125793 
	C200.046997,381.803680 211.575302,386.491852 221.534927,394.948029 
	C231.573105,403.470978 238.241394,413.932037 241.286240,426.721466 
	C245.461975,444.261078 242.513199,460.550232 232.153976,475.270203 
	C223.221848,487.962341 211.084824,496.321228 195.837769,499.579956 
	C177.383606,503.524139 160.946945,499.015991 146.442749,486.983673 
	C136.125504,478.424683 129.984955,467.607971 126.795692,454.587128 
	C123.720512,442.032013 124.847084,430.052185 130.051529,418.575073 
	C132.935287,412.215698 137.289825,406.523315 141.229340,400.272461 
z"/>
</svg>