<svg version="1.1" xmlns="http://www.w3.org/2000/svg" xmlns:xlink="http://www.w3.org/1999/xlink" x="0px" y="0px"
	 width="100%" viewBox="0 0 512 512" enable-background="new 0 0 512 512" xml:space="preserve">
<path fill="#ffffff" opacity="1.000000" stroke="none" 
	d="
M1.000000,203.000000 
	C1.000000,135.333328 1.000000,68.166664 1.000000,1.000000 
	C171.666672,1.000000 342.333344,1.000000 513.000000,1.000000 
	C513.000000,171.666672 513.000000,342.333344 513.000000,513.000000 
	C342.333344,513.000000 171.666672,513.000000 1.000000,513.000000 
	C1.000000,409.833344 1.000000,306.666656 1.000000,203.000000 
M471.085938,340.616821 
	C473.355865,334.171234 475.923401,327.812714 477.839264,321.263550 
	C483.342133,302.452606 486.072937,283.144836 486.894989,263.609222 
	C487.206909,256.196930 486.652039,248.703506 485.924683,241.302841 
	C484.883636,230.710403 483.800629,220.081558 481.887482,209.623398 
	C477.186676,183.926682 467.292969,160.023300 453.820618,137.850052 
	C440.364990,115.704346 423.564789,96.234009 403.355621,79.648102 
	C382.319244,62.383320 359.091278,49.185181 333.606049,40.128002 
	C313.628693,33.028263 292.910065,29.317604 271.629059,27.698515 
	C256.129181,26.519262 240.873016,27.418720 225.680313,29.230480 
	C208.318893,31.300863 191.173630,35.334408 175.040359,42.215290 
	C161.817017,47.855072 148.700684,54.054096 136.366394,61.398285 
	C117.523567,72.617828 100.452141,86.300423 86.263855,103.250931 
	C80.783096,109.798706 74.969978,116.121506 70.036598,123.064331 
	C54.756905,144.567703 43.293255,167.970352 35.975513,193.390274 
	C30.681189,211.781387 27.801836,230.582352 27.190601,249.611008 
	C26.820866,261.121460 27.510210,272.812439 29.193008,284.205292 
	C31.308929,298.530487 34.271290,312.811890 38.068298,326.786163 
	C42.453281,342.924347 49.833439,357.946564 58.126072,372.492859 
	C67.861580,389.570099 79.901833,404.914825 93.580521,418.903870 
	C100.341492,425.818298 108.014542,431.880524 115.545761,437.994720 
	C138.216110,456.399475 163.852341,469.157013 191.798233,477.386200 
	C215.331482,484.316010 239.396042,487.343323 263.897339,486.960724 
	C266.841675,486.914764 269.776276,486.320709 272.717773,486.003021 
	C282.188568,484.980042 291.806854,484.691437 301.103760,482.811646 
	C326.248291,477.727600 350.141235,469.028564 372.312714,455.926636 
	C395.844482,442.020844 416.575775,424.915222 433.994476,403.679413 
	C449.524628,384.746063 461.862000,364.076508 471.085938,340.616821 
z"/>
<path fill="#26D701" opacity="1.000000" stroke="none" 
	d="
M470.996338,340.997437 
	C461.862000,364.076508 449.524628,384.746063 433.994476,403.679413 
	C416.575775,424.915222 395.844482,442.020844 372.312714,455.926636 
	C350.141235,469.028564 326.248291,477.727600 301.103760,482.811646 
	C291.806854,484.691437 282.188568,484.980042 272.717773,486.003021 
	C269.776276,486.320709 266.841675,486.914764 263.897339,486.960724 
	C239.396042,487.343323 215.331482,484.316010 191.798233,477.386200 
	C163.852341,469.157013 138.216110,456.399475 115.545761,437.994720 
	C108.014542,431.880524 100.341492,425.818298 93.580521,418.903870 
	C79.901833,404.914825 67.861580,389.570099 58.126072,372.492859 
	C49.833439,357.946564 42.453281,342.924347 38.068298,326.786163 
	C34.271290,312.811890 31.308929,298.530487 29.193008,284.205292 
	C27.510210,272.812439 26.820866,261.121460 27.190601,249.611008 
	C27.801836,230.582352 30.681189,211.781387 35.975513,193.390274 
	C43.293255,167.970352 54.756905,144.567703 70.036598,123.064331 
	C74.969978,116.121506 80.783096,109.798706 86.263855,103.250931 
	C100.452141,86.300423 117.523567,72.617828 136.366394,61.398285 
	C148.700684,54.054096 161.817017,47.855072 175.040359,42.215290 
	C191.173630,35.334408 208.318893,31.300863 225.680313,29.230480 
	C240.873016,27.418720 256.129181,26.519262 271.629059,27.698515 
	C292.910065,29.317604 313.628693,33.028263 333.606049,40.128002 
	C359.091278,49.185181 382.319244,62.383320 403.355621,79.648102 
	C423.564789,96.234009 440.364990,115.704346 453.820618,137.850052 
	C467.292969,160.023300 477.186676,183.926682 481.887482,209.623398 
	C483.800629,220.081558 484.883636,230.710403 485.924683,241.302841 
	C486.652039,248.703506 487.206909,256.196930 486.894989,263.609222 
	C486.072937,283.144836 483.342133,302.452606 477.839264,321.263550 
	C475.923401,327.812714 473.355865,334.171234 470.996338,340.997437 
M318.431091,444.005707 
	C332.355652,438.741241 345.962921,432.993622 358.784424,425.158600 
	C382.576202,410.619720 402.277252,392.021881 418.337524,369.335571 
	C431.238953,351.111389 440.445007,331.173401 446.593445,309.786652 
	C451.148193,293.943390 453.903931,277.663025 453.749054,261.263031 
	C453.612885,246.839432 452.315430,232.258148 449.762390,218.064606 
	C445.682220,195.381210 437.154633,174.093155 424.904388,154.501907 
	C415.307068,139.153351 404.385101,124.788994 390.425354,113.026939 
	C383.523804,107.211914 376.736206,101.221977 369.485077,95.869301 
	C351.501434,82.594009 331.408356,73.583160 309.966370,67.461266 
	C294.103821,62.932365 277.860107,60.578239 261.443481,60.162354 
	C252.093063,59.925476 242.699951,61.306427 233.328323,61.989613 
	C217.517517,63.142208 202.445602,67.407730 187.699158,72.967964 
	C159.150269,83.732513 134.573013,100.260475 113.725548,122.667427 
	C98.343369,139.200272 86.061813,157.492081 76.865265,178.119110 
	C66.357269,201.687592 61.171715,226.381042 60.169102,251.948318 
	C59.790070,261.613831 61.216541,271.363647 62.013859,281.059082 
	C63.778709,302.519684 70.359711,322.696198 79.576180,341.940948 
	C92.156898,368.210480 109.906952,390.526917 132.470367,409.108337 
	C150.392090,423.867218 170.185394,435.367981 192.032455,442.755737 
	C217.380371,451.327271 243.442184,455.620850 270.518036,453.209167 
	C286.623932,451.774628 302.255432,448.878204 318.431091,444.005707 
z"/>
<path fill="#ffffff" opacity="1.000000" stroke="none" 
	d="
M318.027954,444.062317 
	C302.255432,448.878204 286.623932,451.774628 270.518036,453.209167 
	C243.442184,455.620850 217.380371,451.327271 192.032455,442.755737 
	C170.185394,435.367981 150.392090,423.867218 132.470367,409.108337 
	C109.906952,390.526917 92.156898,368.210480 79.576180,341.940948 
	C70.359711,322.696198 63.778709,302.519684 62.013859,281.059082 
	C61.216541,271.363647 59.790070,261.613831 60.169102,251.948318 
	C61.171715,226.381042 66.357269,201.687592 76.865265,178.119110 
	C86.061813,157.492081 98.343369,139.200272 113.725548,122.667427 
	C134.573013,100.260475 159.150269,83.732513 187.699158,72.967964 
	C202.445602,67.407730 217.517517,63.142208 233.328323,61.989613 
	C242.699951,61.306427 252.093063,59.925476 261.443481,60.162354 
	C277.860107,60.578239 294.103821,62.932365 309.966370,67.461266 
	C331.408356,73.583160 351.501434,82.594009 369.485077,95.869301 
	C376.736206,101.221977 383.523804,107.211914 390.425354,113.026939 
	C404.385101,124.788994 415.307068,139.153351 424.904388,154.501907 
	C437.154633,174.093155 445.682220,195.381210 449.762390,218.064606 
	C452.315430,232.258148 453.612885,246.839432 453.749054,261.263031 
	C453.903931,277.663025 451.148193,293.943390 446.593445,309.786652 
	C440.445007,331.173401 431.238953,351.111389 418.337524,369.335571 
	C402.277252,392.021881 382.576202,410.619720 358.784424,425.158600 
	C345.962921,432.993622 332.355652,438.741241 318.027954,444.062317 
M235.517227,276.017090 
	C232.238358,279.514404 228.959503,283.011749 225.138535,287.087280 
	C215.202118,277.003998 206.025131,267.625061 196.754471,258.339661 
	C194.901886,256.484131 192.841171,254.744492 190.618713,253.367340 
	C183.822754,249.156219 173.763580,251.261642 168.814148,257.742279 
	C164.397125,263.525818 165.009079,273.451202 170.289780,278.761871 
	C184.854370,293.409119 199.459198,308.016663 214.103256,322.584442 
	C220.199585,328.649048 229.826477,328.649078 235.916885,322.566437 
	C271.866119,286.663208 307.822998,250.767166 343.599365,214.692276 
	C345.836700,212.436279 347.516174,208.773865 347.814514,205.611023 
	C348.647614,196.779312 345.651520,192.050735 338.511505,188.854736 
	C331.090851,185.533112 324.806091,186.752670 318.708771,192.843079 
	C291.132294,220.388397 263.578247,247.956177 235.517227,276.017090 
z"/>
<path fill="#00AB08" opacity="1.000000" stroke="none" 
	d="
M235.766678,275.766479 
	C263.578247,247.956177 291.132294,220.388397 318.708771,192.843079 
	C324.806091,186.752670 331.090851,185.533112 338.511505,188.854736 
	C345.651520,192.050735 348.647614,196.779312 347.814514,205.611023 
	C347.516174,208.773865 345.836700,212.436279 343.599365,214.692276 
	C307.822998,250.767166 271.866119,286.663208 235.916885,322.566437 
	C229.826477,328.649078 220.199585,328.649048 214.103256,322.584442 
	C199.459198,308.016663 184.854370,293.409119 170.289780,278.761871 
	C165.009079,273.451202 164.397125,263.525818 168.814148,257.742279 
	C173.763580,251.261642 183.822754,249.156219 190.618713,253.367340 
	C192.841171,254.744492 194.901886,256.484131 196.754471,258.339661 
	C206.025131,267.625061 215.202118,277.003998 225.138535,287.087280 
	C228.959503,283.011749 232.238358,279.514404 235.766678,275.766479 
z"/>
</svg>