<svg version="1.1" xmlns="http://www.w3.org/2000/svg" xmlns:xlink="http://www.w3.org/1999/xlink" x="0px" y="0px"
	 width="100%" viewBox="0 0 512 512" enable-background="new 0 0 512 512" xml:space="preserve">
<path fill="#ffffff" opacity="1.000000" stroke="none" 
	d="
M1.000000,190.000000 
	C1.000000,126.666664 1.000000,63.833332 1.000000,1.000000 
	C171.666672,1.000000 342.333344,1.000000 513.000000,1.000000 
	C513.000000,171.666672 513.000000,342.333344 513.000000,513.000000 
	C342.333344,513.000000 171.666672,513.000000 1.000000,513.000000 
	C1.000000,405.500000 1.000000,298.000000 1.000000,190.000000 
M404.739075,440.009186 
	C408.354187,436.975861 412.213440,434.186279 415.534882,430.859741 
	C423.003174,423.380066 430.514923,415.901733 437.411346,407.907288 
	C442.450226,402.066162 446.536407,395.403198 451.685394,388.816437 
	C455.816345,382.071960 460.128754,375.430878 464.042175,368.562439 
	C473.457428,352.037689 479.588959,334.184021 484.976532,315.184998 
	C489.335693,297.424561 492.203278,279.454407 491.955536,261.117889 
	C491.828827,251.740860 491.222534,242.370316 490.975769,232.145630 
	C490.318542,227.812622 489.649445,223.481384 489.006134,219.146301 
	C485.846771,197.855270 479.383453,177.538269 470.452576,158.029022 
	C462.368347,140.369263 452.684540,123.531769 439.494507,109.201256 
	C427.470062,96.137169 415.275452,83.009880 401.703552,71.644722 
	C384.117645,56.918224 364.102570,45.486248 342.329437,37.936810 
	C328.471069,33.131676 314.149933,29.543383 299.862122,26.141037 
	C291.969940,24.261681 283.745514,23.419729 275.622437,22.952509 
	C263.715851,22.267670 251.765900,22.184172 239.834305,22.179510 
	C236.207947,22.178095 232.581146,23.282309 228.069763,23.981403 
	C223.416870,24.651224 218.751190,25.243021 214.113266,26.004055 
	C191.180023,29.767153 169.544052,37.362118 148.296967,48.225925 
	C143.689560,50.868725 138.991165,53.366032 134.490921,56.180180 
	C117.440804,66.842163 101.376343,78.742775 87.332306,94.158150 
	C68.753334,113.143883 54.199265,134.870956 42.829029,159.667847 
	C41.551025,162.609283 40.143490,165.502014 39.016422,168.500183 
	C32.578827,185.625168 26.585697,202.876175 24.896313,221.274231 
	C23.986567,231.181717 23.077162,241.089249 22.020340,251.924210 
	C22.345530,260.516449 22.133635,269.171265 23.125259,277.685852 
	C24.516861,289.634918 26.221148,301.609283 28.832752,313.341095 
	C33.690094,335.161163 42.159149,355.666565 53.482471,374.961334 
	C62.860451,390.941254 73.362236,406.137878 86.710167,419.068512 
	C95.572922,427.654144 104.796631,435.920959 114.352798,443.725586 
	C132.778610,458.774231 153.604904,469.822357 175.907471,477.834198 
	C196.014496,485.057343 216.709091,489.747772 238.207245,491.186615 
	C254.916946,492.304962 271.458862,492.397247 288.842102,489.974091 
	C300.855865,487.333832 313.007935,485.189545 324.838257,481.891266 
	C333.785736,479.396698 342.322388,475.428467 351.802765,472.013641 
	C360.454895,467.687775 369.458984,463.933838 377.665436,458.883698 
	C386.833954,453.241516 395.278656,446.423096 404.739075,440.009186 
z"/>
<path fill="#F15A87" opacity="1.000000" stroke="none" 
	d="
M288.001770,489.833527 
	C271.458862,492.397247 254.916946,492.304962 238.207245,491.186615 
	C216.709091,489.747772 196.014496,485.057343 175.907471,477.834198 
	C153.604904,469.822357 132.778610,458.774231 114.352798,443.725586 
	C104.796631,435.920959 95.572922,427.654144 86.710167,419.068512 
	C73.362236,406.137878 62.860451,390.941254 53.482471,374.961334 
	C42.159149,355.666565 33.690094,335.161163 28.832752,313.341095 
	C26.221148,301.609283 24.516861,289.634918 23.125259,277.685852 
	C22.133635,269.171265 22.345530,260.516449 22.446335,251.484756 
	C24.610577,251.946014 26.569843,252.577240 28.050697,253.791779 
	C36.719269,260.901428 45.168316,268.282013 53.918282,275.287811 
	C57.958046,278.522308 62.511925,281.114655 67.021042,284.361389 
	C67.414635,284.977753 67.768219,285.211670 67.803963,285.486847 
	C70.140678,303.472992 75.470139,320.639465 83.094498,336.983063 
	C95.942368,364.523682 114.170242,387.874969 138.169281,406.819733 
	C155.579422,420.563293 174.618393,430.911926 195.487732,438.223663 
	C210.281509,443.406830 225.614456,445.846771 241.032349,448.508942 
	C241.954224,449.990387 242.675003,451.336151 243.764053,452.236450 
	C254.513351,461.123138 265.383972,469.863800 276.086426,478.806000 
	C280.234009,482.271423 284.040100,486.145599 288.001770,489.833527 
z"/>
<path fill="#F58D8B" opacity="1.000000" stroke="none" 
	d="
M228.954559,23.880135 
	C232.581146,23.282309 236.207947,22.178095 239.834305,22.179510 
	C251.765900,22.184172 263.715851,22.267670 275.622437,22.952509 
	C283.745514,23.419729 291.969940,24.261681 299.862122,26.141037 
	C314.149933,29.543383 328.471069,33.131676 342.329437,37.936810 
	C364.102570,45.486248 384.117645,56.918224 401.703552,71.644722 
	C415.275452,83.009880 427.470062,96.137169 439.494507,109.201256 
	C452.684540,123.531769 462.368347,140.369263 470.452576,158.029022 
	C479.383453,177.538269 485.846771,197.855270 489.006134,219.146301 
	C489.649445,223.481384 490.318542,227.812622 490.551697,232.548340 
	C488.252716,231.941956 486.152527,231.206909 484.538696,229.880219 
	C472.257416,219.784195 460.149170,209.476257 447.796509,199.469482 
	C444.966156,197.176620 441.396393,195.796478 438.004883,193.659149 
	C435.401337,187.549164 433.181183,181.670151 430.474304,176.024506 
	C423.933258,162.381973 415.946259,149.676682 406.498169,137.777679 
	C396.311584,124.948647 384.660522,113.812347 371.685547,103.914192 
	C358.846832,94.119957 344.952881,86.186096 330.058868,80.045815 
	C313.668945,73.288795 296.633209,68.874847 278.882202,66.530823 
	C277.325653,65.134010 275.853577,64.084503 274.460236,62.939205 
	C261.767242,52.505802 249.042542,42.110031 236.440598,31.567600 
	C233.711502,29.284519 231.437943,26.456924 228.954559,23.880135 
z"/>
<path fill="#F26688" opacity="1.000000" stroke="none" 
	d="
M66.832703,283.998169 
	C62.511925,281.114655 57.958046,278.522308 53.918282,275.287811 
	C45.168316,268.282013 36.719269,260.901428 28.050697,253.791779 
	C26.569843,252.577240 24.610577,251.946014 22.519966,251.021027 
	C23.077162,241.089249 23.986567,231.181717 24.896313,221.274231 
	C26.585697,202.876175 32.578827,185.625168 39.016422,168.500183 
	C40.143490,165.502014 41.551025,162.609283 43.350388,159.356659 
	C50.302582,163.917557 56.690804,168.847275 63.177639,173.643600 
	C68.428337,177.525955 73.797729,181.247742 79.065666,185.431885 
	C76.989830,192.273453 74.898323,198.704468 72.949051,205.178284 
	C68.757820,219.097946 66.044678,233.296921 66.054062,247.867126 
	C66.061821,259.910980 66.554749,271.954498 66.832703,283.998169 
z"/>
<path fill="#F5848B" opacity="1.000000" stroke="none" 
	d="
M228.512161,23.930771 
	C231.437943,26.456924 233.711502,29.284519 236.440598,31.567600 
	C249.042542,42.110031 261.767242,52.505802 274.460236,62.939205 
	C275.853577,64.084503 277.325653,65.134010 278.455566,66.605331 
	C274.915283,66.656242 271.684357,66.100266 268.445312,66.048088 
	C260.105011,65.913742 251.745346,65.687248 243.423660,66.103104 
	C236.924179,66.427917 230.322830,67.063347 224.026443,68.614716 
	C210.878143,71.854309 197.901489,75.790565 184.530701,79.221886 
	C177.170013,73.022209 170.076752,67.105774 163.115234,61.038139 
	C158.317078,56.856064 153.701355,52.464642 149.004105,48.166779 
	C169.544052,37.362118 191.180023,29.767153 214.113266,26.004055 
	C218.751190,25.243021 223.416870,24.651224 228.512161,23.930771 
z"/>
<path fill="#F5858B" opacity="1.000000" stroke="none" 
	d="
M438.166931,193.996277 
	C441.396393,195.796478 444.966156,197.176620 447.796509,199.469482 
	C460.149170,209.476257 472.257416,219.784195 484.538696,229.880219 
	C486.152527,231.206909 488.252716,231.941956 490.480347,232.973938 
	C491.222534,242.370316 491.828827,251.740860 491.955536,261.117889 
	C492.203278,279.454407 489.335693,297.424561 484.556030,315.568359 
	C483.233398,315.581451 482.169189,315.405853 481.454285,314.810699 
	C474.725677,309.209167 468.172577,303.390747 461.331390,297.932587 
	C456.465637,294.050476 451.234985,290.625793 446.097046,286.576965 
	C446.352142,284.586853 446.917053,283.023987 446.964722,281.445557 
	C447.363373,268.242310 447.815002,255.037308 447.910187,241.830383 
	C447.939209,237.806564 447.172180,233.717667 446.312256,229.757919 
	C443.717865,217.811157 440.898560,205.913239 438.166931,193.996277 
z"/>
<path fill="#F47B8A" opacity="1.000000" stroke="none" 
	d="
M446.167175,286.996979 
	C451.234985,290.625793 456.465637,294.050476 461.331390,297.932587 
	C468.172577,303.390747 474.725677,309.209167 481.454285,314.810699 
	C482.169189,315.405853 483.233398,315.581451 484.486267,315.973267 
	C479.588959,334.184021 473.457428,352.037689 464.042175,368.562439 
	C460.128754,375.430878 455.816345,382.071960 451.195251,388.667755 
	C439.764404,379.333130 428.823730,370.147156 418.031494,360.636566 
	C432.571106,337.806030 441.666138,313.278351 446.167175,286.996979 
z"/>
<path fill="#F47B8A" opacity="1.000000" stroke="none" 
	d="
M148.650543,48.196350 
	C153.701355,52.464642 158.317078,56.856064 163.115234,61.038139 
	C170.076752,67.105774 177.170013,73.022209 184.236328,79.469696 
	C175.647537,84.322319 166.883469,88.446548 158.444519,93.153656 
	C144.574875,100.889893 132.561798,111.124557 120.814224,121.872406 
	C116.218750,118.388954 111.758293,115.264412 107.663132,111.718048 
	C100.968056,105.920174 94.510864,99.847618 87.953323,93.890938 
	C101.376343,78.742775 117.440804,66.842163 134.490921,56.180180 
	C138.991165,53.366032 143.689560,50.868725 148.650543,48.196350 
z"/>
<path fill="#F37189" opacity="1.000000" stroke="none" 
	d="
M87.642815,94.024544 
	C94.510864,99.847618 100.968056,105.920174 107.663132,111.718048 
	C111.758293,115.264412 116.218750,118.388954 120.680321,122.182785 
	C110.466232,133.126205 101.153099,144.432007 93.986771,157.364227 
	C88.910866,166.524078 84.063728,175.810699 79.114471,185.040741 
	C73.797729,181.247742 68.428337,177.525955 63.177639,173.643600 
	C56.690804,168.847275 50.302582,163.917557 43.520737,159.022034 
	C54.199265,134.870956 68.753334,113.143883 87.642815,94.024544 
z"/>
<path fill="#F16287" opacity="1.000000" stroke="none" 
	d="
M288.421936,489.903809 
	C284.040100,486.145599 280.234009,482.271423 276.086426,478.806000 
	C265.383972,469.863800 254.513351,461.123138 243.764053,452.236450 
	C242.675003,451.336151 241.954224,449.990387 241.493835,448.438538 
	C250.918930,448.017670 259.947876,448.502716 268.896790,447.864990 
	C278.137787,447.206482 287.336395,445.664886 296.485931,444.111389 
	C302.704865,443.055450 308.807312,441.313599 315.057922,440.207977 
	C316.057129,441.484436 316.876373,442.532471 317.876404,443.362732 
	C328.059784,451.817535 338.292114,460.213531 348.448334,468.700653 
	C349.517548,469.594147 350.186981,470.966095 351.041870,472.116058 
	C342.322388,475.428467 333.785736,479.396698 324.838257,481.891266 
	C313.007935,485.189545 300.855865,487.333832 288.421936,489.903809 
z"/>
<path fill="#F37189" opacity="1.000000" stroke="none" 
	d="
M417.883057,360.961182 
	C428.823730,370.147156 439.764404,379.333130 450.876160,388.812836 
	C446.536407,395.403198 442.450226,402.066162 437.411346,407.907288 
	C430.514923,415.901733 423.003174,423.380066 415.534882,430.859741 
	C412.213440,434.186279 408.354187,436.975861 404.292114,439.734497 
	C403.067963,438.621307 402.366425,437.694031 401.502106,436.957855 
	C391.310303,428.276947 381.094086,419.624664 371.043152,410.654266 
	C376.405792,406.125641 381.839722,402.158569 386.767578,397.639587 
	C398.661896,386.732147 408.762939,374.249908 417.883057,360.961182 
z"/>
<path fill="#F26988" opacity="1.000000" stroke="none" 
	d="
M370.884338,410.964844 
	C381.094086,419.624664 391.310303,428.276947 401.502106,436.957855 
	C402.366425,437.694031 403.067963,438.621307 403.941772,439.788177 
	C395.278656,446.423096 386.833954,453.241516 377.665436,458.883698 
	C369.458984,463.933838 360.454895,467.687775 351.422302,472.064850 
	C350.186981,470.966095 349.517548,469.594147 348.448334,468.700653 
	C338.292114,460.213531 328.059784,451.817535 317.876404,443.362732 
	C316.876373,442.532471 316.057129,441.484436 315.245239,439.882080 
	C323.000519,436.238678 331.009583,433.908356 338.248535,430.110229 
	C349.404358,424.256836 360.032410,417.397461 370.884338,410.964844 
z"/>
<path fill="#ffffff" opacity="1.000000" stroke="none" 
	d="
M371.043182,410.654297 
	C360.032410,417.397461 349.404358,424.256836 338.248535,430.110229 
	C331.009583,433.908356 323.000519,436.238678 315.149200,439.552551 
	C308.807312,441.313599 302.704865,443.055450 296.485931,444.111389 
	C287.336395,445.664886 278.137787,447.206482 268.896790,447.864990 
	C259.947876,448.502716 250.918930,448.017670 241.463638,448.096161 
	C225.614456,445.846771 210.281509,443.406830 195.487732,438.223663 
	C174.618393,430.911926 155.579422,420.563293 138.169281,406.819733 
	C114.170242,387.874969 95.942368,364.523682 83.094498,336.983063 
	C75.470139,320.639465 70.140678,303.472992 67.803963,285.486847 
	C67.768219,285.211670 67.414635,284.977753 67.021042,284.361389 
	C66.554749,271.954498 66.061821,259.910980 66.054062,247.867126 
	C66.044678,233.296921 68.757820,219.097946 72.949051,205.178284 
	C74.898323,198.704468 76.989830,192.273453 79.065666,185.431885 
	C84.063728,175.810699 88.910866,166.524078 93.986771,157.364227 
	C101.153099,144.432007 110.466232,133.126205 120.979401,122.352249 
	C132.561798,111.124557 144.574875,100.889893 158.444519,93.153656 
	C166.883469,88.446548 175.647537,84.322319 184.559937,79.688454 
	C197.901489,75.790565 210.878143,71.854309 224.026443,68.614716 
	C230.322830,67.063347 236.924179,66.427917 243.423660,66.103104 
	C251.745346,65.687248 260.105011,65.913742 268.445312,66.048088 
	C271.684357,66.100266 274.915283,66.656242 278.576538,66.908203 
	C296.633209,68.874847 313.668945,73.288795 330.058868,80.045815 
	C344.952881,86.186096 358.846832,94.119957 371.685547,103.914192 
	C384.660522,113.812347 396.311584,124.948647 406.498169,137.777679 
	C415.946259,149.676682 423.933258,162.381973 430.474304,176.024506 
	C433.181183,181.670151 435.401337,187.549164 438.004883,193.659149 
	C440.898560,205.913239 443.717865,217.811157 446.312256,229.757919 
	C447.172180,233.717667 447.939209,237.806564 447.910187,241.830383 
	C447.815002,255.037308 447.363373,268.242310 446.964722,281.445557 
	C446.917053,283.023987 446.352142,284.586853 446.097046,286.576965 
	C441.666138,313.278351 432.571106,337.806030 418.031494,360.636566 
	C408.762939,374.249908 398.661896,386.732147 386.767578,397.639587 
	C381.839722,402.158569 376.405792,406.125641 371.043182,410.654297 
M293.338562,189.151749 
	C281.545563,201.062775 269.752563,212.973801 257.228455,224.981735 
	C255.630112,223.962128 253.784607,223.191223 252.470688,221.885422 
	C234.045303,203.573914 215.632629,185.248688 197.347183,166.797638 
	C188.267685,157.635925 170.637924,158.789841 163.432892,172.110229 
	C158.574417,181.092346 160.628326,192.090347 168.445084,199.933945 
	C186.194550,217.744293 203.999802,235.499039 221.775482,253.283279 
	C222.925385,254.433762 224.016693,255.642838 226.395782,258.156433 
	C220.801880,263.168549 215.378967,268.027435 209.336380,273.155243 
	C199.463318,283.030914 189.535751,292.852936 179.739243,302.803986 
	C174.527054,308.098389 169.283997,313.399567 164.510269,319.080383 
	C155.784317,329.464386 159.646072,346.237335 171.946869,351.960876 
	C182.139969,356.703674 191.260910,353.909912 198.805969,346.554291 
	C213.791916,331.944672 228.362991,316.909454 243.716675,301.788605 
	C248.041397,297.306091 252.366135,292.823578 256.814850,288.212524 
	C270.145294,301.577637 282.651611,314.239929 295.303162,326.755371 
	C303.070648,334.439331 310.848297,342.137299 319.011475,349.389954 
	C326.812347,356.320709 341.038055,356.398376 349.615753,345.932037 
	C355.847198,338.328522 355.536713,324.728912 347.956512,317.321899 
	C329.277008,299.069183 311.056061,280.347260 292.386841,262.083740 
	C288.826813,258.601074 288.371552,256.180695 292.725952,252.781998 
	C304.522705,240.868256 316.319489,228.954514 328.727264,216.783112 
	C335.562225,209.612610 342.486969,202.525055 349.207672,195.249008 
	C356.408783,187.452881 355.190491,173.245499 347.739532,165.960220 
	C340.538147,158.918945 326.556793,157.544693 318.820282,164.754395 
	C310.373596,172.625916 302.232880,180.825806 293.338562,189.151749 
z"/>
<path fill="#F37389" opacity="1.000000" stroke="none" 
	d="
M209.956039,272.886292 
	C215.378967,268.027435 220.801880,263.168549 226.395782,258.156433 
	C224.016693,255.642838 222.925385,254.433762 221.775482,253.283279 
	C203.999802,235.499039 186.194550,217.744293 168.445084,199.933945 
	C160.628326,192.090347 158.574417,181.092346 163.432892,172.110229 
	C170.637924,158.789841 188.267685,157.635925 197.347183,166.797638 
	C215.632629,185.248688 234.045303,203.573914 252.470688,221.885422 
	C253.784607,223.191223 255.630112,223.962128 257.666565,225.277023 
	C259.317352,227.123123 260.307983,228.937302 261.781097,230.179260 
	C268.245819,235.629562 274.751831,241.041748 281.445282,246.205353 
	C284.776855,248.775452 288.544800,250.779999 292.115326,253.040390 
	C288.371552,256.180695 288.826813,258.601074 292.386841,262.083740 
	C311.056061,280.347260 329.277008,299.069183 347.956512,317.321899 
	C355.536713,324.728912 355.847198,338.328522 349.615753,345.932037 
	C341.038055,356.398376 326.812347,356.320709 319.011475,349.389954 
	C310.848297,342.137299 303.070648,334.439331 295.303162,326.755371 
	C282.651611,314.239929 270.145294,301.577637 256.814850,288.212524 
	C252.366135,292.823578 248.041397,297.306091 243.116638,301.746582 
	C233.120483,294.058960 223.663315,286.486237 214.380661,278.705322 
	C212.559494,277.178741 211.413452,274.846802 209.956039,272.886292 
z"/>
<path fill="#F26888" opacity="1.000000" stroke="none" 
	d="
M209.646210,273.020752 
	C211.413452,274.846802 212.559494,277.178741 214.380661,278.705322 
	C223.663315,286.486237 233.120483,294.058960 242.811035,301.877319 
	C228.362991,316.909454 213.791916,331.944672 198.805969,346.554291 
	C191.260910,353.909912 182.139969,356.703674 171.946869,351.960876 
	C159.646072,346.237335 155.784317,329.464386 164.510269,319.080383 
	C169.283997,313.399567 174.527054,308.098389 179.739243,302.803986 
	C189.535751,292.852936 199.463318,283.030914 209.646210,273.020752 
z"/>
<path fill="#F47A8A" opacity="1.000000" stroke="none" 
	d="
M292.420654,252.911194 
	C288.544800,250.779999 284.776855,248.775452 281.445282,246.205353 
	C274.751831,241.041748 268.245819,235.629562 261.781097,230.179260 
	C260.307983,228.937302 259.317352,227.123123 258.032104,225.228561 
	C269.752563,212.973801 281.545563,201.062775 293.746826,189.347107 
	C301.067200,195.338852 307.923431,201.203644 314.911957,206.906326 
	C319.208862,210.412598 323.707947,213.671051 328.116272,217.040787 
	C316.319489,228.954514 304.522705,240.868256 292.420654,252.911194 
z"/>
<path fill="#F4818A" opacity="1.000000" stroke="none" 
	d="
M328.421753,216.911957 
	C323.707947,213.671051 319.208862,210.412598 314.911957,206.906326 
	C307.923431,201.203644 301.067200,195.338852 294.056946,189.212524 
	C302.232880,180.825806 310.373596,172.625916 318.820282,164.754395 
	C326.556793,157.544693 340.538147,158.918945 347.739532,165.960220 
	C355.190491,173.245499 356.408783,187.452881 349.207672,195.249008 
	C342.486969,202.525055 335.562225,209.612610 328.421753,216.911957 
z"/>
</svg>