<svg version="1.1" xmlns="http://www.w3.org/2000/svg"
	xmlns:xlink="http://www.w3.org/1999/xlink" x="0px" y="0px"
	width="100%" viewBox="0 0 512 512" enable-background="new 0 0 512 512" xml:space="preserve">
<path fill="#39CD00" opacity="1.000000" stroke="none" 
	d="
M0.999999,460.000000 
	C1.000000,324.976685 1.000000,189.953354 1.378048,54.624146 
	C2.144347,53.822044 2.771630,53.375141 2.885673,52.822357 
	C5.343757,40.907646 11.495647,30.789906 19.549473,22.137390 
	C28.250204,12.789879 39.196754,6.451237 51.642693,2.957302 
	C52.540836,2.705168 53.219360,1.670713 54.000000,0.999999 
	C189.023331,1.000000 324.046661,1.000000 459.375977,1.378036 
	C460.508606,2.172093 461.292938,2.745434 462.168121,2.980418 
	C474.142059,6.195390 484.662140,12.202116 493.222595,20.985510 
	C501.867340,29.855371 508.357574,40.267353 511.124054,52.641899 
	C511.250183,53.206196 512.352417,53.552288 513.000000,54.000008 
	C513.000000,189.023331 513.000000,324.046661 512.622070,459.375366 
	C511.835724,460.341522 511.215118,460.953583 511.050537,461.670410 
	C508.215881,474.015533 501.734283,484.468231 492.989960,493.216675 
	C484.360321,501.850372 473.978210,508.138397 461.855621,511.073578 
	C461.124481,511.250671 460.613464,512.336853 460.000000,513.000000 
	C324.976685,513.000000 189.953354,513.000000 54.624466,512.622070 
	C53.658081,511.835785 53.045998,511.215637 52.329170,511.050751 
	C39.985931,508.210785 29.542990,501.729553 20.791981,492.977844 
	C12.157789,484.342957 5.867914,473.974060 2.925876,461.856262 
	C2.748284,461.124786 1.662949,460.613647 0.999999,460.000000 
M337.425751,123.054169 
	C299.375000,105.729385 259.676880,101.604805 218.868484,109.444717 
	C182.650970,116.402641 150.645874,131.976181 125.938293,160.085999 
	C101.203392,188.226898 91.091309,220.814606 100.185493,257.796417 
	C108.249596,290.589355 129.175125,314.178497 156.993744,332.077087 
	C180.629929,347.284698 206.731049,355.656342 234.547485,358.949524 
	C241.074799,359.722290 244.297882,363.488159 243.644562,369.597382 
	C242.688644,378.536499 241.808716,387.487518 240.615540,396.395844 
	C240.063126,400.520111 240.501251,404.115814 244.005493,406.654877 
	C247.546906,409.220886 251.218979,408.460449 254.815750,406.516144 
	C269.292145,398.690674 284.091431,391.407013 298.201355,382.969788 
	C337.437927,359.507721 372.583649,331.493988 398.059662,292.618256 
	C421.011261,257.594696 423.387421,221.453079 404.630859,184.338242 
	C390.237701,155.857666 366.442535,136.977142 337.425751,123.054169 
z"/>
<path fill="#ffffff" opacity="1.000000" stroke="none" 
	d="
M0.999999,460.468658 
	C1.662949,460.613647 2.748284,461.124786 2.925876,461.856262 
	C5.867914,473.974060 12.157789,484.342957 20.791981,492.977844 
	C29.542990,501.729553 39.985931,508.210785 52.329170,511.050751 
	C53.045998,511.215637 53.658081,511.835785 54.159454,512.622070 
	C36.406567,513.000000 18.813131,513.000000 1.000000,513.000000 
	C1.000000,495.646393 1.000000,478.291840 0.999999,460.468658 
z"/>
<path fill="#ffffff" opacity="1.000000" stroke="none" 
	d="
M460.468689,513.000000 
	C460.613464,512.336853 461.124481,511.250671 461.855621,511.073578 
	C473.978210,508.138397 484.360321,501.850372 492.989960,493.216675 
	C501.734283,484.468231 508.215881,474.015533 511.050537,461.670410 
	C511.215118,460.953583 511.835724,460.341522 512.622070,459.840363 
	C513.000000,477.593445 513.000000,495.186890 513.000000,513.000000 
	C495.646393,513.000000 478.291840,513.000000 460.468689,513.000000 
z"/>
<path fill="#ffffff" opacity="1.000000" stroke="none" 
	d="
M513.000000,53.531349 
	C512.352417,53.552288 511.250183,53.206196 511.124054,52.641899 
	C508.357574,40.267353 501.867340,29.855371 493.222595,20.985510 
	C484.662140,12.202116 474.142059,6.195390 462.168121,2.980418 
	C461.292938,2.745434 460.508606,2.172093 459.841003,1.378036 
	C477.593445,1.000000 495.186890,1.000000 513.000000,1.000000 
	C513.000000,18.353611 513.000000,35.708145 513.000000,53.531349 
z"/>
<path fill="#ffffff" opacity="1.000000" stroke="none" 
	d="
M53.531342,0.999999 
	C53.219360,1.670713 52.540836,2.705168 51.642693,2.957302 
	C39.196754,6.451237 28.250204,12.789879 19.549473,22.137390 
	C11.495647,30.789906 5.343757,40.907646 2.885673,52.822357 
	C2.771630,53.375141 2.144347,53.822044 1.378048,54.159134 
	C1.000000,36.406563 1.000000,18.813124 1.000000,1.000000 
	C18.353609,1.000000 35.708145,1.000000 53.531342,0.999999 
z"/>
<path fill="#FEFFFE" opacity="1.000000" stroke="none" 
	d="
M337.773315,123.203232 
	C366.442535,136.977142 390.237701,155.857666 404.630859,184.338242 
	C423.387421,221.453079 421.011261,257.594696 398.059662,292.618256 
	C372.583649,331.493988 337.437927,359.507721 298.201355,382.969788 
	C284.091431,391.407013 269.292145,398.690674 254.815750,406.516144 
	C251.218979,408.460449 247.546906,409.220886 244.005493,406.654877 
	C240.501251,404.115814 240.063126,400.520111 240.615540,396.395844 
	C241.808716,387.487518 242.688644,378.536499 243.644562,369.597382 
	C244.297882,363.488159 241.074799,359.722290 234.547485,358.949524 
	C206.731049,355.656342 180.629929,347.284698 156.993744,332.077087 
	C129.175125,314.178497 108.249596,290.589355 100.185493,257.796417 
	C91.091309,220.814606 101.203392,188.226898 125.938293,160.085999 
	C150.645874,131.976181 182.650970,116.402641 218.868484,109.444717 
	C259.676880,101.604805 299.375000,105.729385 337.773315,123.203232 
M273.367584,236.158966 
	C282.239319,247.610962 291.141052,259.039886 299.963837,270.529449 
	C302.501038,273.833527 305.411530,276.043274 309.755463,274.520660 
	C313.926880,273.058502 315.543945,269.731293 315.548737,265.531952 
	C315.571472,245.704498 315.628418,225.876633 315.514923,206.049820 
	C315.483551,200.565231 312.148010,197.107910 307.510193,197.027634 
	C302.716858,196.944687 299.226715,200.646088 299.134949,206.243195 
	C299.017517,213.405838 299.104889,220.571854 299.104340,227.736404 
	C299.104004,232.315735 299.104279,236.895065 299.104279,242.788254 
	C297.485474,240.721451 296.707397,239.744720 295.946869,238.754532 
	C286.311035,226.209305 276.654785,213.679581 267.059540,201.103348 
	C264.612946,197.896667 261.610718,196.021667 257.591797,197.309921 
	C253.435745,198.642136 251.755676,201.852097 251.766174,206.179504 
	C251.814697,226.173508 251.739883,246.167892 251.819885,266.161682 
	C251.841492,271.565125 255.167175,274.994049 259.900970,275.000580 
	C264.643707,275.007111 267.972290,271.547211 268.021057,266.183197 
	C268.116547,255.687134 268.040863,245.189590 268.064941,234.692734 
	C268.068085,233.321548 268.241913,231.950775 268.386627,229.856522 
	C270.263824,232.219894 271.602661,233.905487 273.367584,236.158966 
M355.530396,213.181824 
	C359.695496,213.180573 363.861816,213.243027 368.025391,213.162781 
	C373.929443,213.048981 377.275452,210.043549 377.255341,205.013885 
	C377.235382,200.020996 373.812134,196.972702 367.953888,196.940063 
	C357.791290,196.883438 347.627899,196.882095 337.465332,196.938507 
	C330.692993,196.976105 327.907227,199.834595 327.894135,206.779953 
	C327.857452,226.272675 327.853912,245.765564 327.897186,265.258270 
	C327.912354,272.093445 330.792480,274.978363 337.596802,275.019318 
	C347.592743,275.079498 357.589478,275.069733 367.585541,275.020081 
	C373.753571,274.989441 377.362671,271.909668 377.366943,266.844666 
	C377.371246,261.767395 373.831726,258.800354 367.571350,258.762665 
	C359.954712,258.716827 352.337585,258.751801 344.458893,258.751801 
	C344.458893,253.658600 344.458893,249.099411 344.458893,244.048492 
	C352.833435,244.048492 360.957581,244.183273 369.074310,243.996414 
	C373.717865,243.889511 376.944855,240.340256 376.950226,235.975891 
	C376.955627,231.592545 373.751343,228.252151 369.094696,227.928635 
	C367.104431,227.790375 365.097961,227.877731 363.098846,227.876434 
	C356.853119,227.872391 350.607391,227.874954 344.445618,227.874954 
	C344.445618,222.593613 344.445618,218.150314 344.445618,213.181824 
	C347.969543,213.181824 351.257202,213.181824 355.530396,213.181824 
M172.110306,197.126846 
	C168.453064,198.472397 166.217484,201.120407 166.198196,204.971451 
	C166.094833,225.619827 166.054230,246.269791 166.221268,266.917328 
	C166.260941,271.822144 169.700394,274.932983 174.615585,274.992432 
	C185.438065,275.123383 196.264679,275.130890 207.086746,274.981995 
	C211.903168,274.915741 214.996811,271.703857 215.175476,267.231598 
	C215.373428,262.277039 212.199753,258.892578 206.812531,258.791046 
	C198.883057,258.641541 190.948669,258.752472 182.662018,258.752472 
	C182.662018,256.258728 182.662079,254.445480 182.662018,252.632233 
	C182.661423,237.311829 182.724182,221.991043 182.631760,206.671188 
	C182.589569,199.682159 179.827499,197.082993 172.110306,197.126846 
M225.866333,273.869171 
	C234.983429,277.400116 239.601776,274.316772 239.605820,264.670197 
	C239.614075,245.031219 239.634644,225.392181 239.592743,205.753296 
	C239.578201,198.938599 237.523178,196.876007 231.128647,196.908997 
	C225.123199,196.939987 223.044006,199.115128 223.036774,205.572876 
	C223.013992,225.877563 222.959045,246.182846 223.125031,266.486206 
	C223.143784,268.781036 224.489624,271.065002 225.866333,273.869171 
z"/>
<path fill="#05C305" opacity="1.000000" stroke="none" 
	d="
M273.154541,235.875031 
	C271.602661,233.905487 270.263824,232.219894 268.386627,229.856522 
	C268.241913,231.950775 268.068085,233.321548 268.064941,234.692734 
	C268.040863,245.189590 268.116547,255.687134 268.021057,266.183197 
	C267.972290,271.547211 264.643707,275.007111 259.900970,275.000580 
	C255.167175,274.994049 251.841492,271.565125 251.819885,266.161682 
	C251.739883,246.167892 251.814697,226.173508 251.766174,206.179504 
	C251.755676,201.852097 253.435745,198.642136 257.591797,197.309921 
	C261.610718,196.021667 264.612946,197.896667 267.059540,201.103348 
	C276.654785,213.679581 286.311035,226.209305 295.946869,238.754532 
	C296.707397,239.744720 297.485474,240.721451 299.104279,242.788254 
	C299.104279,236.895065 299.104004,232.315735 299.104340,227.736404 
	C299.104889,220.571854 299.017517,213.405838 299.134949,206.243195 
	C299.226715,200.646088 302.716858,196.944687 307.510193,197.027634 
	C312.148010,197.107910 315.483551,200.565231 315.514923,206.049820 
	C315.628418,225.876633 315.571472,245.704498 315.548737,265.531952 
	C315.543945,269.731293 313.926880,273.058502 309.755463,274.520660 
	C305.411530,276.043274 302.501038,273.833527 299.963837,270.529449 
	C291.141052,259.039886 282.239319,247.610962 273.154541,235.875031 
z"/>
<path fill="#01C201" opacity="1.000000" stroke="none" 
	d="
M355.037598,213.181824 
	C351.257202,213.181824 347.969543,213.181824 344.445618,213.181824 
	C344.445618,218.150314 344.445618,222.593613 344.445618,227.874954 
	C350.607391,227.874954 356.853119,227.872391 363.098846,227.876434 
	C365.097961,227.877731 367.104431,227.790375 369.094696,227.928635 
	C373.751343,228.252151 376.955627,231.592545 376.950226,235.975891 
	C376.944855,240.340256 373.717865,243.889511 369.074310,243.996414 
	C360.957581,244.183273 352.833435,244.048492 344.458893,244.048492 
	C344.458893,249.099411 344.458893,253.658600 344.458893,258.751801 
	C352.337585,258.751801 359.954712,258.716827 367.571350,258.762665 
	C373.831726,258.800354 377.371246,261.767395 377.366943,266.844666 
	C377.362671,271.909668 373.753571,274.989441 367.585541,275.020081 
	C357.589478,275.069733 347.592743,275.079498 337.596802,275.019318 
	C330.792480,274.978363 327.912354,272.093445 327.897186,265.258270 
	C327.853912,245.765564 327.857452,226.272675 327.894135,206.779953 
	C327.907227,199.834595 330.692993,196.976105 337.465332,196.938507 
	C347.627899,196.882095 357.791290,196.883438 367.953888,196.940063 
	C373.812134,196.972702 377.235382,200.020996 377.255341,205.013885 
	C377.275452,210.043549 373.929443,213.048981 368.025391,213.162781 
	C363.861816,213.243027 359.695496,213.180573 355.037598,213.181824 
z"/>
<path fill="#06C306" opacity="1.000000" stroke="none" 
	d="
M172.505035,197.061783 
	C179.827499,197.082993 182.589569,199.682159 182.631760,206.671188 
	C182.724182,221.991043 182.661423,237.311829 182.662018,252.632233 
	C182.662079,254.445480 182.662018,256.258728 182.662018,258.752472 
	C190.948669,258.752472 198.883057,258.641541 206.812531,258.791046 
	C212.199753,258.892578 215.373428,262.277039 215.175476,267.231598 
	C214.996811,271.703857 211.903168,274.915741 207.086746,274.981995 
	C196.264679,275.130890 185.438065,275.123383 174.615585,274.992432 
	C169.700394,274.932983 166.260941,271.822144 166.221268,266.917328 
	C166.054230,246.269791 166.094833,225.619827 166.198196,204.971451 
	C166.217484,201.120407 168.453064,198.472397 172.505035,197.061783 
z"/>
<path fill="#08C408" opacity="1.000000" stroke="none" 
	d="
M225.543213,273.611572 
	C224.489624,271.065002 223.143784,268.781036 223.125031,266.486206 
	C222.959045,246.182846 223.013992,225.877563 223.036774,205.572876 
	C223.044006,199.115128 225.123199,196.939987 231.128647,196.908997 
	C237.523178,196.876007 239.578201,198.938599 239.592743,205.753296 
	C239.634644,225.392181 239.614075,245.031219 239.605820,264.670197 
	C239.601776,274.316772 234.983429,277.400116 225.543213,273.611572 
z"/>
</svg>