<svg version="1.1" id="Layer_1" xmlns="http://www.w3.org/2000/svg"
	xmlns:xlink="http://www.w3.org/1999/xlink" x="0px" y="0px"
	width="100%" viewBox="0 0 512 512" enable-background="new 0 0 512 512" xml:space="preserve">
<path fill="#FFFFFF" opacity="0.000000" stroke="none" 
	d="
M139.000000,1.000000 
	C263.624146,1.000000 388.248291,1.000000 512.936218,1.000000 
	C512.936218,171.565918 512.936218,342.131866 512.936218,513.000000 
	C388.643494,513.000000 264.286774,513.000000 139.535095,512.668640 
	C222.653610,428.834473 306.167297,345.331940 389.679779,261.828186 
	C394.515747,256.992676 394.510040,256.988739 389.554810,252.034058 
	C307.100983,169.590347 224.646439,87.147392 142.204437,4.691882 
	C141.055130,3.542396 140.064621,2.234151 139.000000,1.000000 
z"/>
<path fill="#FFFFFF" opacity="0.000000" stroke="none" 
	d="
M136.000000,513.000000 
	C91.025185,513.000000 46.050373,513.000000 1.037779,513.000000 
	C1.037779,342.454041 1.037779,171.908081 1.037779,1.000000 
	C45.686909,1.000000 90.374794,1.000000 135.461243,1.331371 
	C131.971115,5.545075 128.298462,9.680851 124.129547,13.234418 
	C120.386002,16.425390 120.814651,18.465469 124.169960,21.812716 
	C201.406357,98.863403 278.523773,176.033340 355.721161,253.123154 
	C356.967773,254.368011 358.934265,254.891968 360.718994,255.833694 
	C333.641754,282.892670 308.192627,308.313141 282.756134,333.746246 
	C229.753342,386.742035 176.776352,439.763733 123.705093,492.690887 
	C120.886780,495.501526 120.248596,497.256042 123.539093,500.203583 
	C127.963463,504.166809 131.870773,508.707275 136.000000,513.000000 
z"/>
<path fill="#000000" opacity="1.000000" stroke="none" 
	d="
M136.375000,513.000000 
	C131.870773,508.707275 127.963463,504.166809 123.539093,500.203583 
	C120.248596,497.256042 120.886780,495.501526 123.705093,492.690887 
	C176.776352,439.763733 229.753342,386.742035 282.756134,333.746246 
	C308.192627,308.313141 333.641754,282.892670 360.718994,255.833694 
	C358.934265,254.891968 356.967773,254.368011 355.721161,253.123154 
	C278.523773,176.033340 201.406357,98.863403 124.169960,21.812716 
	C120.814651,18.465469 120.386002,16.425390 124.129547,13.234418 
	C128.298462,9.680851 131.971115,5.545075 135.929901,1.331371 
	C136.750000,1.000000 137.500000,1.000000 138.625000,1.000000 
	C140.064621,2.234151 141.055130,3.542396 142.204437,4.691882 
	C224.646439,87.147392 307.100983,169.590347 389.554810,252.034058 
	C394.510040,256.988739 394.515747,256.992676 389.679779,261.828186 
	C306.167297,345.331940 222.653610,428.834473 139.070099,512.668640 
	C138.250000,513.000000 137.500000,513.000000 136.375000,513.000000 
z"/>
</svg>