<svg version="1.1" xmlns="http://www.w3.org/2000/svg" xmlns:xlink="http://www.w3.org/1999/xlink"
	x="0px" y="0px"
	width="100%" viewBox="0 0 512 512" enable-background="new 0 0 512 512" xml:space="preserve">
<path fill="#FFFFFF" opacity="1.000000" stroke="none" 
	d="
M513.000000,201.000000 
	C513.000000,304.960297 513.000000,408.920563 513.000000,512.940430 
	C342.438263,512.940430 171.876495,512.940430 1.000000,512.940430 
	C1.000000,410.977570 1.000000,308.954834 1.378188,206.592300 
	C2.504480,209.875610 3.216919,213.506500 4.006529,217.120499 
	C8.827497,239.185913 17.929766,259.430603 29.863369,278.522644 
	C42.642277,298.967041 58.404629,317.019836 75.012360,334.296783 
	C85.998405,345.725494 97.808784,356.390472 109.596748,367.012665 
	C125.925278,381.726440 142.568909,396.090820 159.098160,410.581421 
	C169.576263,419.767212 180.036377,428.974762 190.603378,438.057587 
	C206.354950,451.596741 222.257248,464.960968 237.972076,478.542328 
	C247.678040,486.930542 266.561737,486.879883 276.186340,478.365723 
	C286.000061,469.684296 295.937469,461.141052 305.895691,452.624969 
	C319.065948,441.362061 332.363159,430.247284 345.504028,418.950470 
	C356.322418,409.650208 367.038361,400.229248 377.717316,390.768860 
	C393.087891,377.152222 408.591492,363.674866 423.630585,349.699280 
	C432.114471,341.815277 440.097473,333.329163 447.736481,324.614929 
	C457.625397,313.334137 467.524475,301.979553 476.386414,289.899109 
	C492.805786,267.516510 504.794922,242.921112 510.189575,215.435593 
	C511.133698,210.625168 512.063538,205.811935 513.000000,201.000000 
z"/>
<path fill="currentColor" opacity="1.000000" stroke="none" 
	d="
M513.000000,200.531342 
	C512.063538,205.811935 511.133698,210.625168 510.189575,215.435593 
	C504.794922,242.921112 492.805786,267.516510 476.386414,289.899109 
	C467.524475,301.979553 457.625397,313.334137 447.736481,324.614929 
	C440.097473,333.329163 432.114471,341.815277 423.630585,349.699280 
	C408.591492,363.674866 393.087891,377.152222 377.717316,390.768860 
	C367.038361,400.229248 356.322418,409.650208 345.504028,418.950470 
	C332.363159,430.247284 319.065948,441.362061 305.895691,452.624969 
	C295.937469,461.141052 286.000061,469.684296 276.186340,478.365723 
	C266.561737,486.879883 247.678040,486.930542 237.972076,478.542328 
	C222.257248,464.960968 206.354950,451.596741 190.603378,438.057587 
	C180.036377,428.974762 169.576263,419.767212 159.098160,410.581421 
	C142.568909,396.090820 125.925278,381.726440 109.596748,367.012665 
	C97.808784,356.390472 85.998405,345.725494 75.012360,334.296783 
	C58.404629,317.019836 42.642277,298.967041 29.863369,278.522644 
	C17.929766,259.430603 8.827497,239.185913 4.006529,217.120499 
	C3.216919,213.506500 2.504480,209.875610 1.378188,206.126266 
	C1.000000,190.312439 1.000000,174.624878 1.383699,158.352127 
	C2.177334,156.921234 2.855106,156.106613 2.957358,155.225235 
	C4.716720,140.060135 9.356629,125.711250 15.625381,111.904625 
	C25.996086,89.063637 41.282623,70.040825 61.457870,55.120682 
	C77.717926,43.095924 96.020393,35.016796 115.754494,31.286730 
	C127.456329,29.074894 139.681137,29.427582 151.684006,29.067244 
	C163.828537,28.702650 175.591324,31.583698 186.899643,35.539852 
	C207.540466,42.760929 225.458069,54.590359 240.677597,70.288887 
	C246.429703,76.222046 251.545837,82.771790 257.082642,89.192085 
	C261.980988,83.352943 266.514008,77.391922 271.625244,71.976669 
	C281.184357,61.849026 292.128143,53.423901 304.135437,46.289722 
	C320.481689,36.577534 338.135040,30.510157 356.939331,29.235874 
	C372.940033,28.151579 388.989380,28.683611 404.877563,32.848618 
	C435.732758,40.937145 460.968597,57.433853 480.535675,82.264877 
	C495.783752,101.614944 505.343536,123.849617 509.998505,148.109360 
	C511.014313,153.403290 512.000305,158.702957 513.000000,164.000000 
	C513.000000,176.020889 513.000000,188.041794 513.000000,200.531342 
M466.511993,118.008499 
	C464.631775,114.835480 462.932739,111.537140 460.839783,108.511253 
	C452.035431,95.782173 441.490540,84.988525 428.272369,76.535583 
	C403.356110,60.601765 376.478699,56.568916 347.973938,62.096588 
	C327.669952,66.033958 310.664673,76.888016 296.556091,91.427162 
	C287.497589,100.762100 280.682739,112.257683 272.714203,122.671524 
	C264.863739,132.931061 248.105789,132.982605 241.103973,122.115463 
	C231.276611,106.862915 220.327072,92.758003 205.981812,81.406769 
	C191.070755,69.607803 174.277588,61.894466 155.478378,60.239262 
	C138.366714,58.732639 121.436996,60.420513 104.915169,66.789413 
	C80.967392,76.020905 63.015865,91.892654 50.064533,113.466057 
	C33.906124,140.381592 29.349287,169.796768 32.926704,200.788177 
	C34.724094,216.359131 39.598972,230.940918 46.475536,244.790222 
	C56.927273,265.839874 71.154442,284.383850 87.142349,301.475555 
	C98.883743,314.027588 111.344452,325.909515 123.564476,338.009399 
	C127.188492,341.597778 131.027176,344.976654 134.864243,348.341217 
	C147.927704,359.796143 161.029541,371.207275 174.126450,382.624023 
	C181.784012,389.299194 189.409927,396.011963 197.140045,402.602264 
	C207.707825,411.611847 218.416382,420.456635 228.960358,429.493652 
	C237.303940,436.644745 245.478561,443.992645 253.755936,451.221436 
	C255.625641,452.854340 257.389465,453.581696 259.518311,451.185089 
	C261.454071,449.005768 263.901733,447.277588 266.145020,445.375610 
	C276.990875,436.180298 287.879913,427.035492 298.682434,417.789551 
	C306.526154,411.076019 314.224579,404.192993 322.048920,397.456543 
	C333.579468,387.529144 345.206940,377.714081 356.709534,367.754608 
	C363.169067,362.161682 369.512299,356.431183 375.816833,350.663055 
	C388.467224,339.088989 401.381348,327.776306 413.561432,315.723907 
	C422.657196,306.723511 431.409058,297.217804 439.161194,287.057495 
	C448.731873,274.513672 457.924408,261.526855 465.764313,247.861679 
	C473.179047,234.937668 477.717865,220.716263 480.288055,205.747589 
	C482.923767,190.397491 482.640594,175.150864 480.743286,160.016068 
	C478.922607,145.492645 473.788971,131.686813 466.511993,118.008499 
z"/>
	<path fill="#FFFFFF" opacity="1.000000" stroke="none" 
	d="
M513.000000,163.531342 
	C512.000305,158.702957 511.014313,153.403290 509.998505,148.109360 
	C505.343536,123.849617 495.783752,101.614944 480.535675,82.264877 
	C460.968597,57.433853 435.732758,40.937145 404.877563,32.848618 
	C388.989380,28.683611 372.940033,28.151579 356.939331,29.235874 
	C338.135040,30.510157 320.481689,36.577534 304.135437,46.289722 
	C292.128143,53.423901 281.184357,61.849026 271.625244,71.976669 
	C266.514008,77.391922 261.980988,83.352943 257.082642,89.192085 
	C251.545837,82.771790 246.429703,76.222046 240.677597,70.288887 
	C225.458069,54.590359 207.540466,42.760929 186.899643,35.539852 
	C175.591324,31.583698 163.828537,28.702650 151.684006,29.067244 
	C139.681137,29.427582 127.456329,29.074894 115.754494,31.286730 
	C96.020393,35.016796 77.717926,43.095924 61.457870,55.120682 
	C41.282623,70.040825 25.996086,89.063637 15.625381,111.904625 
	C9.356629,125.711250 4.716720,140.060135 2.957358,155.225235 
	C2.855106,156.106613 2.177334,156.921234 1.383699,157.883469 
	C1.000000,105.694176 1.000000,53.388359 1.000000,1.041268 
	C171.549423,1.041268 342.098877,1.041268 513.000000,1.041268 
	C513.000000,55.020386 513.000000,109.041534 513.000000,163.531342 
z"/>
<path fill="#FFFFFF" opacity="1.000000" stroke="none" 
	d="
M466.739258,118.319572 
	C473.788971,131.686813 478.922607,145.492645 480.743286,160.016068 
	C482.640594,175.150864 482.923767,190.397491 480.288055,205.747589 
	C477.717865,220.716263 473.179047,234.937668 465.764313,247.861679 
	C457.924408,261.526855 448.731873,274.513672 439.161194,287.057495 
	C431.409058,297.217804 422.657196,306.723511 413.561432,315.723907 
	C401.381348,327.776306 388.467224,339.088989 375.816833,350.663055 
	C369.512299,356.431183 363.169067,362.161682 356.709534,367.754608 
	C345.206940,377.714081 333.579468,387.529144 322.048920,397.456543 
	C314.224579,404.192993 306.526154,411.076019 298.682434,417.789551 
	C287.879913,427.035492 276.990875,436.180298 266.145020,445.375610 
	C263.901733,447.277588 261.454071,449.005768 259.518311,451.185089 
	C257.389465,453.581696 255.625641,452.854340 253.755936,451.221436 
	C245.478561,443.992645 237.303940,436.644745 228.960358,429.493652 
	C218.416382,420.456635 207.707825,411.611847 197.140045,402.602264 
	C189.409927,396.011963 181.784012,389.299194 174.126450,382.624023 
	C161.029541,371.207275 147.927704,359.796143 134.864243,348.341217 
	C131.027176,344.976654 127.188492,341.597778 123.564476,338.009399 
	C111.344452,325.909515 98.883743,314.027588 87.142349,301.475555 
	C71.154442,284.383850 56.927273,265.839874 46.475536,244.790222 
	C39.598972,230.940918 34.724094,216.359131 32.926704,200.788177 
	C29.349287,169.796768 33.906124,140.381592 50.064533,113.466057 
	C63.015865,91.892654 80.967392,76.020905 104.915169,66.789413 
	C121.436996,60.420513 138.366714,58.732639 155.478378,60.239262 
	C174.277588,61.894466 191.070755,69.607803 205.981812,81.406769 
	C220.327072,92.758003 231.276611,106.862915 241.103973,122.115463 
	C248.105789,132.982605 264.863739,132.931061 272.714203,122.671524 
	C280.682739,112.257683 287.497589,100.762100 296.556091,91.427162 
	C310.664673,76.888016 327.669952,66.033958 347.973938,62.096588 
	C376.478699,56.568916 403.356110,60.601765 428.272369,76.535583 
	C441.490540,84.988525 452.035431,95.782173 460.839783,108.511253 
	C462.932739,111.537140 464.631775,114.835480 466.739258,118.319572 
z"/>
</svg>